Coordinates
version=1
nRows=49
nColumns=12
inDegrees=yes

Units are S.I. units (second, meters, Newtons, ...)
Angles are in degrees

endheader
time	SC_y	SC_z	SC_x	AC_y	AC_z	AC_x	GH_y	GH_z	GH_yy	EL_x	PS_y
       0.0              -53.98          7.238           5.74          52.19          5.382         0.7167          74.01          32.29         -46.21          6.376          71.98
  0.004238              -53.98          7.237          5.751          52.19          5.381         0.7146          74.02          32.29         -46.21           6.39          71.97
  0.008476              -53.98          7.237          5.763          52.19          5.381         0.7123          74.02           32.3         -46.21          6.406          71.97
   0.01271              -53.97          7.236          5.776          52.18          5.381         0.7099          74.03           32.3          -46.2          6.423          71.97
   0.01695              -53.97          7.235          5.789          52.18           5.38         0.7074          74.03           32.3          -46.2           6.44          71.97
   0.02119              -53.96          7.234          5.804          52.18           5.38         0.7047          74.04           32.3         -46.19          6.459          71.97
   0.02543              -53.96          7.233          5.819          52.17          5.379         0.7018          74.05          32.31         -46.19          6.479          71.97
   0.02967              -53.95          7.232          5.836          52.17          5.379         0.6987          74.05          32.31         -46.18          6.501          71.97
    0.0339              -53.94          7.231          5.853          52.16          5.378         0.6954          74.06          32.31         -46.18          6.524          71.97
   0.03814              -53.94           7.23          5.872          52.16          5.378         0.6919          74.07          32.31         -46.17          6.548          71.96
   0.04238              -53.93          7.229          5.893          52.16          5.377         0.6881          74.08          32.32         -46.17          6.575          71.96
   0.04662              -53.92          7.228          5.915          52.15          5.376          0.684          74.09          32.32         -46.16          6.604          71.96
   0.05085              -53.91          7.226          5.938          52.14          5.376         0.6796           74.1          32.33         -46.15          6.634          71.96
   0.05509              -53.91          7.225          5.964          52.14          5.375         0.6748          74.11          32.33         -46.15          6.668          71.95
   0.05933               -53.9          7.223          5.991          52.13          5.374         0.6696          74.13          32.33         -46.14          6.704          71.95
   0.06357              -53.89          7.222          6.021          52.13          5.373          0.664          74.14          32.34         -46.13          6.743          71.95
   0.06781              -53.87           7.22          6.054          52.12          5.372         0.6579          74.15          32.34         -46.12          6.785          71.95
   0.07204              -53.86          7.218          6.089          52.11          5.371         0.6513          74.17          32.35         -46.11          6.831          71.94
   0.07628              -53.85          7.216          6.128           52.1           5.37         0.6441          74.19          32.36          -46.1          6.882          71.94
   0.08052              -53.83          7.213          6.171          52.09          5.369         0.6361          74.21          32.36         -46.08          6.937          71.93
   0.08476              -53.82           7.21          6.217          52.08          5.367         0.6274          74.23          32.37         -46.07          6.998          71.93
     0.089               -53.8          7.208          6.268          52.07          5.366         0.6179          74.25          32.38         -46.05          7.064          71.93
   0.09323              -53.78          7.204          6.325          52.05          5.364         0.6073          74.28          32.39         -46.04          7.138          71.92
   0.09747              -53.76          7.201          6.388          52.04          5.362         0.5956          74.31           32.4         -46.02           7.22          71.91
    0.1017              -53.73          7.197          6.458          52.02           5.36         0.5825          74.34          32.41          -46.0          7.311          71.91
    0.1059              -53.71          7.192          6.535           52.0          5.357          0.568          74.37          32.42         -45.97          7.412           71.9
    0.1102              -53.67          7.187          6.623          51.98          5.355         0.5517          74.41          32.44         -45.95          7.525          71.89
    0.1144              -53.64          7.182          6.721          51.96          5.352         0.5334          74.46          32.45         -45.92          7.653          71.88
    0.1187               -53.6          7.175          6.832          51.93          5.348         0.5127          74.51          32.47         -45.89          7.798          71.87
    0.1229              -53.56          7.168          6.957           51.9          5.344         0.4892          74.57          32.49         -45.85          7.961          71.86
    0.1271              -53.51           7.16          7.101          51.87           5.34         0.4623          74.63          32.52         -45.81          8.148          71.85
    0.1314              -53.45           7.15          7.266          51.83          5.335         0.4316          74.71          32.54         -45.76          8.363          71.83
    0.1356              -53.38          7.139          7.456          51.79          5.329          0.396          74.79          32.57          -45.7          8.611          71.81
    0.1399               -53.3          7.127          7.677          51.73          5.322         0.3547          74.89          32.61         -45.63          8.899          71.79
    0.1441              -53.21          7.112          7.936          51.67          5.315         0.3064          75.01          32.65         -45.56          9.236          71.77
    0.1483              -53.11          7.094          8.241           51.6          5.305         0.2494          75.15           32.7         -45.47          9.633          71.74
    0.1526              -52.98          7.073          8.604          51.52          5.294         0.1817          75.32          32.76         -45.36           10.1           71.7
    0.1568              -52.83          7.049          9.038          51.41          5.281         0.1005          75.51          32.83         -45.23          10.67          71.66
     0.161              -52.64          7.018          9.564          51.29          5.265       0.002332          75.75          32.92         -45.07          11.35          71.61
    0.1653              -52.42          6.982          10.21          51.14          5.245        -0.1176          76.05          33.03         -44.88          12.19          71.55
    0.1695              -52.14          6.936           11.0          50.95          5.221        -0.2657          76.41          33.16         -44.64          13.22          71.47
    0.1738              -51.79          6.879          11.99          50.72          5.191        -0.4503          76.86          33.32         -44.35          14.51          71.38
     0.178              -51.35          6.808          13.23          50.42          5.153        -0.6828          77.42          33.52         -43.98          16.13          71.26
    0.1822               -50.8          6.717          14.81          50.05          5.104        -0.9784          78.15          33.78         -43.51          18.19          71.11
    0.1865              -50.09          6.601          16.84          49.57          5.042         -1.357          79.07          34.12          -42.9          20.83          70.91
    0.1907              -49.18          6.452          19.44          48.96          4.963         -1.842          80.25          34.54         -42.13          24.21          70.66
    0.1949              -48.01          6.261          22.76          48.17          4.861         -2.463          81.77          35.09         -41.14          28.54          70.34
    0.1992              -46.54          6.021          26.94          47.19          4.734         -3.243          83.67          35.78         -39.89          33.97          69.94
    0.2034              -44.76          5.729          32.03          45.99          4.578         -4.193          85.99          36.61         -38.37           40.6          69.46
